<svg width="19" height="18" viewBox="0 0 19 18" fill="none" xmlns="http://www.w3.org/2000/svg">
<g clip-path="url(#clip0_91_19)">
<g clip-path="url(#clip1_91_19)">
<path d="M9.78065 14.7673C9.03065 14.7673 8.33546 14.5816 7.69508 14.2102C7.05469 13.8388 6.54988 13.3281 6.18065 12.6781H4.91719C4.72103 12.6781 4.5595 12.6114 4.43257 12.4779C4.30565 12.3444 4.24219 12.179 4.24219 11.9816C4.24219 11.7843 4.30853 11.6189 4.44123 11.4855C4.57392 11.352 4.73834 11.2852 4.9345 11.2852H5.69603C5.66142 11.0531 5.64123 10.8209 5.63546 10.5888C5.62969 10.3567 5.6268 10.1245 5.6268 9.89237H4.91719C4.72103 9.89237 4.5595 9.82563 4.43257 9.69215C4.30565 9.55866 4.24219 9.39327 4.24219 9.19595C4.24219 8.99862 4.30853 8.83322 4.44123 8.69974C4.57392 8.56625 4.73834 8.49952 4.9345 8.49952H5.6268C5.6268 8.26737 5.62969 8.03523 5.63546 7.80309C5.64123 7.57095 5.66142 7.3388 5.69603 7.10666H4.91719C4.72103 7.10666 4.5595 7.03991 4.43257 6.90643C4.30565 6.77295 4.24219 6.60755 4.24219 6.41023C4.24219 6.21291 4.30853 6.0475 4.44123 5.91402C4.57392 5.78054 4.73834 5.7138 4.9345 5.7138H6.18065C6.34219 5.44684 6.52392 5.19728 6.72585 4.96514C6.92777 4.733 7.16142 4.52987 7.4268 4.35577L6.78642 3.69416C6.6595 3.55487 6.59892 3.38947 6.60469 3.19795C6.61046 3.00643 6.6768 2.84683 6.80373 2.71916C6.93065 2.59148 7.09219 2.52764 7.28834 2.52764C7.4845 2.52764 7.64603 2.59148 7.77296 2.71916L8.7768 3.72898C9.09988 3.62452 9.42873 3.57229 9.76334 3.57229C10.098 3.57229 10.4268 3.62452 10.7499 3.72898L11.7883 2.70175C11.9268 2.57407 12.0912 2.51313 12.2816 2.51893C12.472 2.52474 12.6306 2.59148 12.7576 2.71916C12.8845 2.84683 12.948 3.00934 12.948 3.20666C12.948 3.40398 12.8845 3.56648 12.7576 3.69416L12.0999 4.35577C12.3653 4.52987 12.6047 4.73009 12.8182 4.95643C13.0316 5.18277 13.2191 5.43523 13.3806 5.7138H14.6442C14.8403 5.7138 15.0018 5.78054 15.1288 5.91402C15.2557 6.0475 15.3191 6.21291 15.3191 6.41023C15.3191 6.60755 15.2527 6.77295 15.1201 6.90643C14.9874 7.03991 14.823 7.10666 14.6268 7.10666H13.8653C13.8999 7.3388 13.9201 7.57095 13.9258 7.80309C13.9316 8.03523 13.9345 8.26737 13.9345 8.49952H14.6442C14.8403 8.49952 15.0018 8.56625 15.1288 8.69974C15.2557 8.83322 15.3191 8.99862 15.3191 9.19595C15.3191 9.39327 15.2527 9.55866 15.1201 9.69215C14.9874 9.82563 14.823 9.89237 14.6268 9.89237H13.9345C13.9345 10.1245 13.9316 10.3567 13.9258 10.5888C13.9201 10.8209 13.8999 11.0531 13.8653 11.2852H14.6442C14.8403 11.2852 15.0018 11.352 15.1288 11.4855C15.2557 11.6189 15.3191 11.7843 15.3191 11.9816C15.3191 12.179 15.2527 12.3444 15.1201 12.4779C14.9874 12.6114 14.823 12.6781 14.6268 12.6781H13.3806C13.0114 13.3281 12.5066 13.8388 11.8662 14.2102C11.2258 14.5816 10.5306 14.7673 9.78065 14.7673ZM9.78065 13.3745C10.5422 13.3745 11.1941 13.1018 11.7364 12.5562C12.2787 12.0107 12.5499 11.3548 12.5499 10.5888V7.80309C12.5499 7.03702 12.2787 6.38121 11.7364 5.83568C11.1941 5.29014 10.5422 5.01737 9.78065 5.01737C9.01911 5.01737 8.36719 5.29014 7.82488 5.83568C7.28257 6.38121 7.01142 7.03702 7.01142 7.80309V10.5888C7.01142 11.3548 7.28257 12.0107 7.82488 12.5562C8.36719 13.1018 9.01911 13.3745 9.78065 13.3745ZM9.08834 11.2852H10.4903C10.6864 11.2852 10.848 11.2185 10.9749 11.085C11.1018 10.9515 11.1653 10.7861 11.1653 10.5888C11.1653 10.3915 11.0989 10.2261 10.9662 10.0926C10.8335 9.95911 10.6691 9.89237 10.473 9.89237H9.07103C8.87488 9.89237 8.71334 9.95911 8.58642 10.0926C8.4595 10.2261 8.39603 10.3915 8.39603 10.5888C8.39603 10.7861 8.46238 10.9515 8.59508 11.085C8.72777 11.2185 8.89219 11.2852 9.08834 11.2852ZM9.08834 8.49952H10.4903C10.6864 8.49952 10.848 8.43277 10.9749 8.29929C11.1018 8.16581 11.1653 8.00041 11.1653 7.80309C11.1653 7.60577 11.0989 7.44036 10.9662 7.30688C10.8335 7.1734 10.6691 7.10666 10.473 7.10666H9.07103C8.87488 7.10666 8.71334 7.1734 8.58642 7.30688C8.4595 7.44036 8.39603 7.60577 8.39603 7.80309C8.39603 8.00041 8.46238 8.16581 8.59508 8.29929C8.72777 8.43277 8.89219 8.49952 9.08834 8.49952Z" fill="#888EA5"/>
</g>
</g>
<defs>
<clipPath id="clip0_91_19">
<rect width="12" height="13" fill="white" transform="translate(3.78125 2)"/>
</clipPath>
<clipPath id="clip1_91_19">
<rect width="12" height="13" fill="white" transform="translate(3.78125 2)"/>
</clipPath>
</defs>
</svg>
