<svg width="32" height="32" viewBox="0 0 32 32" fill="none" xmlns="http://www.w3.org/2000/svg">
<g clip-path="url(#clip0_91_10)">
<path d="M15.9982 17.229L11.9772 21.25C11.8105 21.4167 11.6092 21.4967 11.3732 21.49C11.1372 21.4827 10.9359 21.3957 10.7692 21.229C10.6025 21.0623 10.5192 20.8577 10.5192 20.615C10.5192 20.3717 10.6025 20.1667 10.7692 20L14.7692 16L10.7482 11.979C10.5815 11.8123 10.5015 11.6077 10.5082 11.365C10.5155 11.1217 10.6025 10.9167 10.7692 10.75C10.9359 10.5833 11.1405 10.5 11.3832 10.5C11.6265 10.5 11.8315 10.5833 11.9982 10.75L15.9982 14.771L20.0192 10.75C20.1859 10.5833 20.3905 10.5 20.6332 10.5C20.8765 10.5 21.0815 10.5833 21.2482 10.75C21.4149 10.9167 21.4982 11.1217 21.4982 11.365C21.4982 11.6077 21.4149 11.8123 21.2482 11.979L17.2272 16L21.2482 20.021C21.4149 20.1877 21.4982 20.389 21.4982 20.625C21.4982 20.861 21.4149 21.0623 21.2482 21.229C21.0815 21.3957 20.8765 21.479 20.6332 21.479C20.3905 21.479 20.1859 21.3957 20.0192 21.229L15.9982 17.229Z" fill="#A0AEBA"/>
</g>
<defs>
<clipPath id="clip0_91_10">
<rect width="32" height="32" fill="white"/>
</clipPath>
</defs>
</svg>
