<svg width="46" height="46" viewBox="0 0 46 46" fill="none" xmlns="http://www.w3.org/2000/svg">
<path d="M21.5 14.25C22.8813 14.25 24 15.3688 24 16.75C24 18.1313 22.8813 19.25 21.5 19.25C20.1187 19.25 19 18.1313 19 16.75C19 15.3688 20.1187 14.25 21.5 14.25ZM34 30.5H30.25V26.75H26.5V30.5H22.75V34.25H26.5V38H30.25V34.25H34V30.5ZM24 26.75L16.3925 19.1425C15.4162 18.1662 13.8337 18.1662 12.8575 19.1425L7.75 24.25V12.375C7.75 12.0312 8.03 11.75 8.375 11.75H25.875C26.22 11.75 26.5 12.0312 26.5 12.375V24.25H30.25V12.375C30.25 9.9625 28.2875 8 25.875 8H8.375C5.9625 8 4 9.9625 4 12.375V34.25H20.25V28H24V26.75Z" fill="#8F95AA" fill-opacity="0.41"/>
</svg>
