<svg width="19" height="18" viewBox="0 0 19 18" fill="none" xmlns="http://www.w3.org/2000/svg">
<g clip-path="url(#clip0_91_31)">
<g clip-path="url(#clip1_91_31)">
<path d="M11.3427 5.78578C11.3427 5.28411 11.1844 4.88161 10.8677 4.57828C10.551 4.27494 10.1316 4.12328 9.60937 4.12328C9.28715 4.12328 8.99549 4.1962 8.73437 4.34203C8.47326 4.48786 8.24826 4.70078 8.05937 4.98078C7.88159 5.24911 7.63993 5.4037 7.33437 5.44453C7.02882 5.48536 6.76493 5.40078 6.5427 5.19078C6.38715 5.03911 6.30104 4.85244 6.28437 4.63078C6.26771 4.40911 6.32048 4.19911 6.44271 4.00078C6.79826 3.44078 7.25104 3.0062 7.80104 2.69703C8.35104 2.38786 8.95381 2.23328 9.60937 2.23328C10.6871 2.23328 11.5622 2.55411 12.2344 3.19578C12.9066 3.83744 13.2427 4.67744 13.2427 5.71578C13.2427 6.24078 13.1371 6.71328 12.926 7.13328C12.7149 7.55328 12.326 8.04911 11.7594 8.62078C11.3483 9.02911 11.0705 9.34703 10.926 9.57453C10.7816 9.80203 10.6871 10.0616 10.6427 10.3533C10.5983 10.6333 10.4844 10.8666 10.301 11.0533C10.1177 11.2399 9.89826 11.3333 9.6427 11.3333C9.38715 11.3333 9.16771 11.2429 8.98437 11.062C8.80104 10.8812 8.70937 10.6566 8.70937 10.3883C8.70937 9.93328 8.80381 9.5162 8.9927 9.13703C9.18159 8.75786 9.49826 8.35828 9.9427 7.93828C10.5094 7.41328 10.8844 7.00786 11.0677 6.72203C11.251 6.4362 11.3427 6.12411 11.3427 5.78578ZM9.60937 15.5333C9.2427 15.5333 8.92882 15.3962 8.66771 15.122C8.4066 14.8478 8.27604 14.5183 8.27604 14.1333C8.27604 13.7483 8.4066 13.4187 8.66771 13.1445C8.92882 12.8704 9.2427 12.7333 9.60937 12.7333C9.97604 12.7333 10.2899 12.8704 10.551 13.1445C10.8122 13.4187 10.9427 13.7483 10.9427 14.1333C10.9427 14.5183 10.8122 14.8478 10.551 15.122C10.2899 15.3962 9.97604 15.5333 9.60937 15.5333Z" fill="#888EA5"/>
</g>
</g>
<defs>
<clipPath id="clip0_91_31">
<rect width="8" height="14" fill="white" transform="translate(5.60938 2)"/>
</clipPath>
<clipPath id="clip1_91_31">
<rect width="8" height="14" fill="white" transform="translate(5.60938 2)"/>
</clipPath>
</defs>
</svg>
